<svg version="1.2" xmlns="http://www.w3.org/2000/svg" viewBox="0 0 282 282" width="150" height="150">
	<title>Logo</title>
	<style>
		.s0 { fill: #969899 } 
		.s1 { fill: #1b4696 } 
		.s2 { fill: #214592;stroke: #214592;stroke-miterlimit:10;stroke-width: .6 } 
		.s3 { fill: #969798;stroke: #969798;stroke-miterlimit:10;stroke-width: .4 } 
	</style>
	<g id="_Artboards_">
	</g>
	<g id="Layer 1">
		<g id="&lt;Group&gt;">
			<g id="&lt;Group&gt;">
				<path id="&lt;Path&gt;" class="s0" d="m825 61.1c-2.8 3.9-5.3 7.4-7.7 10.8-1.2 1.6-2.6 3.1-3.4 4.8-2.2 4.7-5.8 5.6-10.7 5.5-15.5-0.3-31-0.1-46.5-0.1-1.7 0-3.4 0.2-5.1 0.5-2.8 0.6-4.3 2.4-4.5 5.3-0.2 2.8 1.2 5.1 3.9 5.9 1.7 0.4 3.5 0.6 5.3 0.6 14.3 0.1 28.6 0 42.9 0 6 0.1 11.9 0.9 17.4 3.5 5.6 2.8 9.3 7.3 10.3 13.5 1.4 8.7 0.7 17.2-5.7 24.2-4.3 4.7-10.1 7-16.2 7.7-6.8 0.7-13.6 0.7-20.4 0.9-0.9 0.1-2.2-0.3-2.7-1-4.2-6.4-8.2-12.8-12.6-19.7 1.3-0.1 2.2-0.3 3.1-0.3 7.4 0 14.8 0.1 22.2 0 1.6 0 3.2 0 4.8-0.2 3-0.4 4.9-2.4 5.2-5.2 0.3-3.5-1-5.8-4.2-6.7-1.9-0.5-4-0.6-6-0.6-14-0.1-28 0.1-41.9-0.2-4.5 0-9.2-0.7-13.5-2.1-10.8-3.6-15.6-12.2-14.6-24.3 1-12.8 9-19.3 19.9-21.5 5.1-1.1 10.3-1.4 15.5-1.4 20.7-0.2 41.4-0.1 62-0.1 0.9 0 1.7 0.1 3.2 0.2z"/>
			</g>
			<g id="&lt;Group&gt;">
				<path id="&lt;Path&gt;" class="s1" d="m644.5 64.9q6.2-4 12.3-8.1c7.1-4.7 14.2-9.3 21.2-14.1 0.9-0.7 1.7-2.2 1.7-3.3 0.2-6.3 0.2-12.6 0-18.9 0-2.2 0.8-2.8 2.9-2.7q10.2 0.1 20.4 0c1.9-0.1 2.6 0.6 2.5 2.5-0.2 1.4-0.1 2.8-0.1 4.7 1.2-0.6 2-0.9 2.6-1.4 11-7.1 22-14.2 33-21.2 0.7-0.5 2.2-0.5 2.8 0 26.4 16.9 52.8 33.9 79.1 50.9 0.5 0.3 1 0.8 1.9 1.6-1.2 0.1-1.9 0.2-2.5 0.2-10.6 0-21.3 0.1-31.9 0-1.4-0.1-3.1-0.5-4.2-1.3q-20.7-13.3-41.2-26.9c-1.9-1.2-3.2-1.2-5 0q-29.3 18.8-58.7 37.4c-1.4 0.8-3.2 1.3-4.7 1.4-9.7 0.1-19.4 0-29.1 0q-1.4 0-2.8 0-0.1-0.4-0.2-0.8z"/>
			</g>
			<g id="&lt;Group&gt;">
				<path id="&lt;Path&gt;" class="s1" d="m705.8 55.4c0.1 1.5 0.2 2.5 0.2 3.6 0 20.2 0 40.5-0.1 60.7 0 2.4 0.6 3.2 3.1 3.2 16.7-0.1 33.4 0 50-0.1 2.1 0 3.3 0.6 4.4 2.4 3.2 5.3 6.7 10.6 10.1 15.9 0.5 0.9 1.1 1.9 1.9 3.2-1.2 0.1-2 0.2-2.8 0.2-29.8 0-59.7 0-89.5 0.1-2.3 0-2.9-0.7-2.9-2.9 0.1-22.8 0-45.6 0.1-68.4 0-1.2 0.7-2.8 1.5-3.4 7.4-4.7 14.9-9.2 22.3-13.8 0.4-0.3 0.8-0.4 1.7-0.7z"/>
			</g>
			<g id="&lt;Group&gt;">
				<path id="&lt;Path&gt;" class="s0" d="m723.2 45.9q4.5-3 9-5.9c2.9-1.9 6-3.6 8.8-5.7 2.1-1.6 3.8-1.5 6 0 6.5 4.5 13.1 8.8 19.7 13.2 0.9 0.6 1.8 1.3 2.5 2.3q-1.4-0.6-2.7-1.3c-6.9-3.7-13.8-7.4-20.6-11.1-1.5-0.9-2.8-0.8-4.3-0.1-6 3.1-12.1 6-18.2 9q-0.1-0.2-0.2-0.4z"/>
			</g>
		</g>
		<g id="&lt;Group&gt;">
			<g id="&lt;Group&gt;">
				<path id="&lt;Compound Path&gt;" class="s1" d="m9.8 220c-3.8 0-6.1-1.9-6.2-6.2l-0.1-34.4h10.4l0.2 29.7c0 2 0.7 2.7 2.7 2.7l20.8-0.1 0.1 8.1z"/>
				<path id="&lt;Compound Path&gt;" fill-rule="evenodd" class="s1" d="m54.4 183.5c1.3-3.2 3-4.8 8-4.8 3.6 0 6.3 0.8 7.9 4.7l15.4 36.2-11 0.1-3.7-9.3-17.1 0.1-3.6 9.3h-10.9zm2.1 19.1h12l-5.2-12.8c-0.3-0.7-0.5-1.3-0.9-1.3-0.4 0-0.6 0.6-0.8 1.3z"/>
				<path id="&lt;Compound Path&gt;" class="s1" d="m100.2 211.5l22.5-0.1c2.7 0 2.8-1.8 2.8-2.8 0-1.4-0.7-2.6-3.1-3.3l-15.9-4.7c-5.3-1.5-6.9-5.7-6.9-11.3 0-6.1 2.6-10.3 9.4-10.3l25-0.1v8.1l-21 0.1c-1.5 0-2.8 0.6-2.8 2.6 0 1.6 0.8 2.7 3.3 3.5l14.2 4.1c6.1 1.7 8.5 4.7 8.5 11.3 0 6.5-2.3 10.8-9.2 10.9l-26.8 0.1z"/>
				<path id="&lt;Compound Path&gt;" class="s1" d="m141.2 219.4l-0.2-34.3c0-4.4 2.4-6.3 6.1-6.3l27.9-0.1v8.1l-20.8 0.1c-2 0-2.7 0.7-2.7 2.7v5.4l17.7-0.1 0.1 8.2h-17.8l0.1 16.3z"/>
				<path id="&lt;Compound Path&gt;" class="s1" d="m178.9 219.2l-0.2-40.5 10.5-0.1 0.1 40.6z"/>
				<path id="&lt;Compound Path&gt;" fill-rule="evenodd" class="s1" d="m201.8 219.1c-3.7 0.1-6.1-1.8-6.1-6.1l-0.1-28.1c-0.1-4.4 2.3-6.3 6.1-6.3l16.2-0.1c13.6-0.1 16.7 8.3 16.7 20.2 0.1 11.9-2.9 20.3-16 20.4zm4.3-11.1c0 2.2 0.7 2.9 2.9 2.9h2.4c9.2 0 12.6-2.4 12.5-12.2 0-9.9-3.4-12.2-12.6-12.1h-2.4c-2.2 0-2.9 0.7-2.9 2.9z"/>
				<path id="&lt;Compound Path&gt;" fill-rule="evenodd" class="s1" d="m250.5 182.7c1.4-3.2 3-4.8 8-4.8 3.7 0 6.3 0.8 8 4.7l15.3 36.2h-10.9l-3.7-9.2-17.1 0.1-3.6 9.2-10.9 0.1zm2 19.1h12l-5.2-12.9c-0.2-0.6-0.4-1.3-0.8-1.3-0.4 0-0.7 0.7-0.9 1.3z"/>
			</g>
		</g>
		<g id="&lt;Group&gt;">
			<g id="&lt;Group&gt;">
				<path id="&lt;Path&gt;" class="s0" d="m223.6 71.1c-2.8 3.9-5.2 7.4-7.7 10.8-1.1 1.6-2.6 3.1-3.4 4.8-2.2 4.7-5.8 5.6-10.7 5.5-15.5-0.3-31-0.1-46.5-0.1-1.7 0-3.4 0.2-5 0.5-2.9 0.6-4.4 2.4-4.6 5.3-0.2 2.8 1.2 5.1 4 5.9 1.6 0.4 3.5 0.6 5.2 0.6 14.3 0.1 28.6 0 42.9 0 6 0.1 11.9 0.9 17.4 3.5 5.7 2.8 9.3 7.3 10.3 13.5 1.4 8.7 0.7 17.2-5.7 24.2-4.3 4.7-10.1 7-16.2 7.7-6.8 0.7-13.6 0.7-20.4 0.9-0.9 0.1-2.2-0.3-2.6-1-4.2-6.4-8.3-12.8-12.7-19.7 1.4-0.1 2.2-0.3 3.1-0.3 7.4 0 14.8 0.1 22.2 0 1.6 0 3.3 0 4.9-0.2 2.9-0.4 4.8-2.4 5.1-5.2 0.3-3.5-1-5.8-4.2-6.7-1.9-0.5-4-0.6-6-0.6-14-0.1-27.9 0.1-41.9-0.2-4.5 0-9.2-0.7-13.5-2.1-10.8-3.6-15.6-12.2-14.6-24.3 1-12.8 9-19.3 20-21.5 5-1.1 10.2-1.4 15.4-1.4 20.7-0.2 41.4-0.1 62.1-0.1 0.8 0 1.6 0.1 3.1 0.2z"/>
			</g>
			<g id="&lt;Group&gt;">
				<path id="&lt;Path&gt;" class="s1" d="m43.2 74.9q6.1-4 12.2-8.1c7.1-4.7 14.2-9.3 21.2-14.1 1-0.7 1.7-2.2 1.7-3.3 0.2-6.3 0.2-12.6 0.1-18.9-0.1-2.2 0.7-2.8 2.8-2.7q10.2 0.1 20.4 0c1.9-0.1 2.6 0.6 2.5 2.5-0.1 1.4 0 2.8 0 4.7 1.2-0.6 1.9-0.9 2.5-1.4 11-7.1 22-14.2 33.1-21.2 0.6-0.5 2.1-0.5 2.8 0 26.4 16.9 52.7 33.9 79 50.9 0.6 0.3 1 0.8 1.9 1.6-1.2 0.1-1.8 0.2-2.5 0.2-10.6 0-21.2 0.1-31.9 0-1.4-0.1-3-0.5-4.2-1.3q-20.7-13.3-41.2-26.9c-1.8-1.2-3.2-1.2-5 0q-29.3 18.8-58.7 37.4c-1.3 0.8-3.1 1.3-4.7 1.4-9.7 0.1-19.4 0-29.1 0q-1.4 0-2.7 0-0.1-0.4-0.2-0.8z"/>
			</g>
			<g id="&lt;Group&gt;">
				<path id="&lt;Path&gt;" class="s1" d="m104.4 65.4c0.1 1.5 0.2 2.5 0.2 3.6 0 20.2 0 40.5-0.1 60.7 0 2.4 0.6 3.2 3.1 3.2 16.7-0.1 33.4 0 50.1-0.1 2 0 3.2 0.6 4.3 2.4 3.3 5.3 6.7 10.6 10.1 15.9 0.6 0.9 1.1 1.9 1.9 3.2-1.2 0.1-2 0.2-2.7 0.2-29.9 0-59.8 0-89.6 0.1-2.3 0-2.9-0.7-2.8-2.9 0-22.8 0-45.6 0.1-68.4 0-1.2 0.6-2.8 1.5-3.4 7.3-4.7 14.8-9.2 22.2-13.8 0.4-0.3 0.8-0.4 1.7-0.7z"/>
			</g>
			<g id="&lt;Group&gt;">
				<path id="&lt;Path&gt;" class="s0" d="m121.8 55.9q4.5-3 9-5.9c2.9-1.9 6-3.6 8.8-5.7 2.2-1.6 3.8-1.5 6 0 6.5 4.5 13.1 8.8 19.7 13.2 0.9 0.6 1.8 1.3 2.5 2.3q-1.3-0.6-2.6-1.3c-6.9-3.7-13.8-7.4-20.7-11.1-1.5-0.9-2.7-0.8-4.3-0.1-6 3.1-12.1 6-18.2 9q-0.1-0.2-0.2-0.4z"/>
			</g>
		</g>
		<g id="&lt;Group&gt;">
			<g id="&lt;Group&gt;">
				<g id="&lt;Group&gt;">
					<path id="&lt;Path&gt;" class="s0" d="m829.6 60.4c-3 4.2-5.5 7.7-8 11.3-1.2 1.6-2.7 3.1-3.5 4.9-2.3 4.9-6 5.9-11.1 5.8-16-0.4-32.1-0.2-48.1-0.1-1.7 0-3.5 0.1-5.2 0.5-3 0.5-4.6 2.4-4.8 5.5-0.1 2.9 1.3 5.2 4.1 6 1.8 0.5 3.7 0.6 5.5 0.6 14.8 0.1 29.6 0 44.4 0.1 6.2 0 12.3 0.9 17.9 3.6 5.9 2.9 9.7 7.5 10.7 13.9 1.5 9 0.7 17.8-5.9 25-4.4 4.9-10.4 7.3-16.8 8-7 0.8-14 0.8-21.1 1-0.9 0-2.2-0.4-2.7-1.1-4.3-6.6-8.5-13.3-13.1-20.4 1.4-0.1 2.3-0.2 3.2-0.2 7.7 0 15.3 0 23 0 1.7 0 3.4-0.1 5-0.3 3-0.4 5-2.5 5.3-5.4 0.4-3.6-1-6-4.3-6.8-2-0.6-4.1-0.7-6.2-0.7-14.5-0.1-28.9 0.1-43.4-0.2-4.6 0-9.5-0.7-13.9-2.2-11.2-3.7-16.2-12.6-15.2-25.1 1.1-13.3 9.4-19.9 20.7-22.3 5.2-1.1 10.6-1.4 16-1.4 21.4-0.2 42.8-0.1 64.2-0.1 0.8 0 1.7 0.1 3.3 0.1z"/>
				</g>
				<g id="&lt;Group&gt;">
					<path id="&lt;Path&gt;" class="s1" d="m642.9 64.4q6.3-4.2 12.7-8.3c7.3-4.9 14.7-9.7 21.9-14.7 0.9-0.6 1.7-2.2 1.8-3.4 0.1-6.5 0.1-13 0-19.5-0.1-2.3 0.7-2.9 2.9-2.8q10.6 0.1 21.1 0c2-0.1 2.8 0.6 2.6 2.5-0.1 1.5 0 3 0 5 1.2-0.7 1.9-1 2.6-1.5 11.4-7.3 22.8-14.7 34.2-21.9 0.7-0.5 2.2-0.5 2.9-0.1 27.3 17.5 54.6 35.1 81.8 52.7 0.5 0.4 1 0.9 1.9 1.7-1.2 0.1-1.9 0.2-2.5 0.2-11 0-22 0-33-0.1-1.5 0-3.2-0.4-4.4-1.2q-21.4-13.8-42.6-27.9c-1.9-1.2-3.3-1.2-5.2 0q-30.3 19.5-60.7 38.7c-1.4 0.9-3.3 1.4-4.9 1.4-10 0.1-20.1 0.1-30.1 0.1q-1.4 0-2.8 0-0.1-0.4-0.2-0.9z"/>
				</g>
				<g id="&lt;Group&gt;">
					<path id="&lt;Path&gt;" class="s1" d="m706.2 54.6c0.1 1.5 0.2 2.6 0.2 3.7 0 20.9 0 41.9-0.1 62.8 0 2.5 0.7 3.3 3.3 3.3 17.2-0.1 34.5 0 51.7-0.1 2.1 0 3.4 0.7 4.5 2.5 3.4 5.5 6.9 10.9 10.4 16.4 0.6 1 1.2 2 2 3.4-1.2 0.1-2 0.2-2.8 0.2-30.9 0-61.8 0-92.7 0-2.4 0-2.9-0.7-2.9-3 0.1-23.5 0-47.1 0.1-70.7 0-1.2 0.6-2.9 1.6-3.5 7.6-4.9 15.3-9.6 23-14.3 0.4-0.2 0.8-0.4 1.7-0.7z"/>
				</g>
				<g id="&lt;Group&gt;">
					<path id="&lt;Path&gt;" class="s0" d="m724.2 44.8q4.7-3.1 9.3-6.2c3.1-1.9 6.2-3.7 9.1-5.8 2.3-1.7 4-1.6 6.3 0 6.7 4.7 13.5 9.1 20.3 13.6 1 0.7 1.9 1.4 2.6 2.4q-1.4-0.7-2.7-1.4c-7.2-3.8-14.3-7.6-21.4-11.4-1.6-0.9-2.8-0.9-4.4-0.1-6.3 3.2-12.6 6.2-18.8 9.3q-0.2-0.2-0.3-0.4z"/>
				</g>
			</g>
			<g id="&lt;Group&gt;">
				<g id="&lt;Group&gt;">
					<path id="&lt;Compound Path&gt;" class="s2" d="m638.4 203.1h-6.6v-46.3h6.6z"/>
					<path id="&lt;Compound Path&gt;" class="s2" d="m644.9 203.1v-6.6h18.9v-5.8c0-7-4.7-11.5-12.2-11.5h-0.8v-6.6h1.2c7.1 0 12.5 2.8 16 8.3 1.6 2.5 2.4 5.9 2.4 10.2v5.4h0.4v6.6z"/>
					<path id="&lt;Compound Path&gt;" class="s2" d="m669.7 196.6h30.2v6.5h-30.2z"/>
					<path id="&lt;Compound Path&gt;" class="s2" d="m720.5 196.5h0.4v6.6h-22.2v-6.6h15.2v-23.9h6.6zm-16.8 13.9h6.5v6.6h-6.5zm10.2 0h6.6v6.6h-6.6z"/>
					<path id="&lt;Compound Path&gt;" fill-rule="evenodd" class="s2" d="m720.5 203.1v-6.6h16c-3.6-3.6-5.5-7.4-5.5-11.1 0-4.5 1.8-8.1 5.3-10.7 2-1.4 4.8-2.1 8.7-2.1h9.3v23.9h0.4v6.6zm27.2-7.1v-16.8h-2.6c-1.5 0-2.6 0-3.3 0.2-2.7 0.6-4 2.6-4 5.8 0 1.9 0.8 3.8 2.3 5.7 1.8 2.3 4.3 4 7.6 5.1zm-8-39.2h6.6v6.5h-6.6z"/>
					<path id="&lt;Compound Path&gt;" class="s2" d="m783.1 196.5h11.6v-18.2h6.5v18.2h11.7v-23.9h6.5v30.5h-65.1v-6.6h22.3v-12.4h6.5z"/>
					<path id="&lt;Compound Path&gt;" class="s2" d="m849.8 196.5v-39.7h6.6v39.7h10.5v-39.7h6.7v46.3h-34.3v-6.6z"/>
				</g>
			</g>
		</g>
		<g id="&lt;Group&gt;">
			<g id="&lt;Group&gt;">
				<path id="&lt;Path&gt;" class="s0" d="m825-537.8c-2.8 4-5.3 7.4-7.7 10.9-1.2 1.6-2.6 3-3.4 4.8-2.2 4.6-5.8 5.6-10.7 5.5-15.5-0.3-31-0.1-46.5-0.1-1.7 0-3.4 0.2-5.1 0.5-2.8 0.5-4.3 2.3-4.5 5.3-0.2 2.8 1.2 5.1 3.9 5.8 1.7 0.5 3.5 0.7 5.3 0.7 14.3 0 28.6 0 42.9 0 6 0 11.9 0.9 17.4 3.5 5.6 2.8 9.3 7.3 10.3 13.4 1.4 8.8 0.7 17.3-5.7 24.2-4.3 4.8-10.1 7.1-16.2 7.8-6.8 0.7-13.6 0.7-20.4 0.9-0.9 0-2.2-0.4-2.7-1-4.2-6.4-8.2-12.9-12.6-19.8 1.3-0.1 2.2-0.2 3.1-0.2 7.4 0 14.8 0 22.2 0 1.6 0 3.2-0.1 4.8-0.3 3-0.3 4.9-2.4 5.2-5.1 0.3-3.6-1-5.8-4.2-6.7-1.9-0.5-4-0.6-6-0.7-14 0-28 0.2-41.9-0.1-4.5-0.1-9.2-0.7-13.5-2.1-10.8-3.7-15.6-12.2-14.6-24.3 1-12.8 9-19.3 19.9-21.6 5.1-1 10.3-1.3 15.5-1.4 20.7-0.1 41.4 0 62 0 0.9 0 1.7 0 3.2 0.1z"/>
			</g>
			<g id="&lt;Group&gt;">
				<path id="&lt;Path&gt;" class="s1" d="m644.5-533.9q6.2-4.1 12.3-8.1c7.1-4.7 14.2-9.4 21.2-14.2 0.9-0.6 1.7-2.1 1.7-3.3 0.2-6.3 0.2-12.6 0-18.8 0-2.2 0.8-2.8 2.9-2.8q10.2 0.2 20.4 0c1.9 0 2.6 0.6 2.5 2.5-0.2 1.4-0.1 2.9-0.1 4.8 1.2-0.6 2-1 2.6-1.4 11-7.1 22-14.2 33-21.3 0.7-0.4 2.2-0.4 2.8 0 26.4 17 52.8 34 79.1 51 0.5 0.3 1 0.8 1.9 1.6-1.2 0.1-1.9 0.2-2.5 0.2-10.6 0-21.3 0-31.9-0.1-1.4 0-3.1-0.4-4.2-1.2q-20.7-13.3-41.2-26.9c-1.9-1.2-3.2-1.2-5 0q-29.3 18.8-58.7 37.4c-1.4 0.8-3.2 1.3-4.7 1.3-9.7 0.2-19.4 0.1-29.1 0.1q-1.4 0-2.8 0-0.1-0.4-0.2-0.8z"/>
			</g>
			<g id="&lt;Group&gt;">
				<path id="&lt;Path&gt;" class="s1" d="m705.8-543.5c0.1 1.5 0.2 2.6 0.2 3.7 0 20.2 0 40.4-0.1 60.7 0 2.4 0.6 3.2 3.1 3.2 16.7-0.1 33.4-0.1 50-0.1 2.1 0 3.3 0.6 4.4 2.3 3.2 5.4 6.7 10.6 10.1 15.9 0.5 1 1.1 1.9 1.9 3.3-1.2 0.1-2 0.2-2.8 0.2-29.8 0-59.7 0-89.5 0-2.3 0-2.9-0.7-2.9-2.9 0.1-22.8 0-45.6 0.1-68.4 0-1.1 0.7-2.7 1.5-3.3 7.4-4.7 14.9-9.3 22.3-13.9 0.4-0.2 0.8-0.3 1.7-0.7z"/>
			</g>
			<g id="&lt;Group&gt;">
				<path id="&lt;Path&gt;" class="s0" d="m723.2-552.9q4.5-3 9-6c2.9-1.9 6-3.6 8.8-5.7 2.1-1.6 3.8-1.5 6 0.1 6.5 4.5 13.1 8.8 19.7 13.2 0.9 0.6 1.8 1.3 2.5 2.3q-1.4-0.7-2.7-1.4c-6.9-3.7-13.8-7.3-20.6-11.1-1.5-0.8-2.8-0.8-4.3 0-6 3-12.1 6-18.2 8.9q-0.1-0.1-0.2-0.3z"/>
			</g>
		</g>
		<g id="&lt;Group&gt;">
			<g id="&lt;Group&gt;">
				<path id="&lt;Compound Path&gt;" class="s1" d="m9.7-379.4c-3.7 0-6.1-1.9-6.1-6.2v-34.4h10.4v29.7c0 2 0.7 2.7 2.7 2.7h20.9v8.2z"/>
				<path id="&lt;Compound Path&gt;" fill-rule="evenodd" class="s1" d="m54.5-415.7c1.3-3.2 3-4.8 8-4.8 3.6 0 6.3 0.8 7.9 4.8l15.2 36.3h-11l-3.6-9.3h-17.1l-3.7 9.3h-10.9zm2 19.1h12l-5.2-12.9c-0.2-0.6-0.4-1.3-0.8-1.3-0.4 0-0.6 0.7-0.8 1.3z"/>
				<path id="&lt;Compound Path&gt;" class="s1" d="m100.1-387.6h22.5c2.8 0 2.9-1.8 2.9-2.7 0-1.4-0.7-2.6-3.1-3.3l-15.9-4.8c-5.3-1.6-6.8-5.7-6.8-11.3 0-6.1 2.6-10.3 9.3-10.3h25.1v8.1h-21c-1.5 0-2.8 0.6-2.8 2.7 0 1.5 0.8 2.6 3.2 3.4l14.3 4.2c6 1.7 8.4 4.7 8.4 11.4 0 6.4-2.4 10.8-9.3 10.8h-26.8z"/>
				<path id="&lt;Compound Path&gt;" class="s1" d="m141.1-379.4v-34.3c0-4.4 2.4-6.3 6.1-6.3h27.8v8.1h-20.8c-2 0-2.7 0.7-2.7 2.7v5.4h17.7v8.1h-17.7v16.3z"/>
				<path id="&lt;Compound Path&gt;" class="s1" d="m178.8-379.4v-40.6h10.4v40.6z"/>
				<path id="&lt;Compound Path&gt;" fill-rule="evenodd" class="s1" d="m201.8-379.4c-3.8 0-6.2-1.9-6.2-6.2v-28.1c0-4.4 2.4-6.3 6.2-6.3h16.2c13.6 0 16.6 8.4 16.6 20.3 0 11.9-3 20.3-16 20.3zm4.2-11.1c0 2.2 0.7 2.9 2.9 2.9h2.4c9.3 0 12.6-2.3 12.6-12.1 0-9.9-3.3-12.2-12.6-12.2h-2.4c-2.2 0-2.9 0.7-2.9 2.9z"/>
				<path id="&lt;Compound Path&gt;" fill-rule="evenodd" class="s1" d="m250.6-415.7c1.3-3.2 3-4.8 8-4.8 3.6 0 6.3 0.8 7.9 4.8l15.2 36.3h-10.9l-3.7-9.3h-17.1l-3.6 9.3h-10.9zm1.9 19.1h12l-5.1-12.9c-0.2-0.6-0.4-1.3-0.8-1.3-0.4 0-0.7 0.7-0.9 1.3z"/>
			</g>
		</g>
		<g id="&lt;Group&gt;">
			<g id="&lt;Group&gt;">
				<path id="&lt;Compound Path&gt;" class="s0" d="m19.4-366.5v2.3h-10.8v6.6h9.5v2.3h-9.5v9.5h-2.8v-20.7z"/>
				<path id="&lt;Compound Path&gt;" fill-rule="evenodd" class="s0" d="m21.7-356.4q0.5-1.4 1.4-2.5 1-1 2.3-1.6 1.4-0.6 3.1-0.6 1.8 0 3.2 0.6 1.3 0.6 2.3 1.6 0.9 1.1 1.4 2.5 0.4 1.5 0.4 3.1 0 1.7-0.4 3.1-0.5 1.4-1.4 2.5-1 1-2.3 1.6-1.4 0.6-3.2 0.6-1.7 0-3.1-0.6-1.3-0.6-2.3-1.6-0.9-1.1-1.4-2.5-0.4-1.4-0.4-3.1 0-1.6 0.4-3.1zm2.5 5.6q0.4 1 1 1.7 0.7 0.7 1.5 1.1 0.9 0.4 1.8 0.4 1 0 1.9-0.4 0.8-0.4 1.5-1.1 0.6-0.7 1-1.7 0.3-1.1 0.3-2.5 0-1.3-0.3-2.4-0.4-1-1-1.8-0.7-0.7-1.5-1.1-0.9-0.4-1.9-0.4-0.9 0-1.8 0.4-0.8 0.4-1.5 1.1-0.6 0.8-1 1.8-0.3 1.1-0.3 2.4 0 1.4 0.3 2.5z"/>
				<path id="&lt;Compound Path&gt;" class="s0" d="m41-360.8v3.2q0.9-1.8 2.2-2.7 1.3-0.9 3.3-0.8v2.6q-1.5 0-2.5 0.4-1 0.4-1.7 1.2-0.6 0.8-0.9 1.9-0.3 1.1-0.3 2.5v6.7h-2.5v-15z"/>
				<path id="&lt;Compound Path&gt;" fill-rule="evenodd" class="s0" d="m66.6-366.5q2.9 0 4.6 1.5 1.7 1.4 1.7 3.9 0 1.9-0.9 3.3-0.8 1.5-2.7 2 0.9 0.2 1.4 0.6 0.6 0.4 0.9 1 0.4 0.6 0.5 1.3 0.2 0.6 0.3 1.4 0 0.8 0.1 1.5 0 0.8 0.1 1.6 0.1 0.7 0.3 1.4 0.3 0.7 0.7 1.2h-3.1q-0.3-0.3-0.4-0.9-0.1-0.5-0.1-1.2 0-0.7-0.1-1.5 0-0.7-0.1-1.5-0.1-0.7-0.3-1.4-0.2-0.7-0.6-1.2-0.3-0.5-1-0.8-0.6-0.3-1.6-0.3h-6.7v8.8h-2.8v-20.7zm0.6 9.4q0.9-0.1 1.5-0.6 0.7-0.4 1.1-1.1 0.4-0.7 0.4-1.8 0-1.6-0.9-2.6-0.9-1-2.8-1h-6.8v7.2h5.7q1 0 1.8-0.1z"/>
				<path id="&lt;Compound Path&gt;" fill-rule="evenodd" class="s0" d="m86.9-346.7q-1.7 1.2-4.2 1.2-1.8 0-3.1-0.5-1.4-0.6-2.3-1.7-0.9-1-1.3-2.5-0.5-1.4-0.5-3.1 0-1.7 0.5-3.2 0.5-1.4 1.5-2.4 0.9-1.1 2.2-1.6 1.3-0.6 2.8-0.6 2 0 3.4 0.8 1.3 0.8 2.1 2.1 0.8 1.3 1.1 2.8 0.3 1.5 0.2 2.9h-11.2q0 0.9 0.2 1.8 0.3 0.9 0.9 1.6 0.5 0.7 1.4 1.1 0.9 0.4 2.2 0.4 1.5 0 2.5-0.7 1-0.8 1.3-2.2h2.5q-0.5 2.5-2.2 3.8zm-0.6-9.7q-0.3-0.8-0.9-1.3-0.5-0.6-1.3-0.9-0.8-0.4-1.7-0.4-1 0-1.7 0.4-0.8 0.3-1.4 0.9-0.5 0.6-0.8 1.3-0.3 0.8-0.4 1.7h8.6q-0.1-0.9-0.4-1.7z"/>
				<path id="&lt;Compound Path&gt;" fill-rule="evenodd" class="s0" d="m105.1-345.8q-0.6 0.3-1.7 0.3-1 0-1.5-0.5-0.6-0.5-0.6-1.8-1 1.3-2.4 1.8-1.3 0.5-2.9 0.5-1 0-1.9-0.2-0.9-0.2-1.6-0.7-0.7-0.5-1.1-1.3-0.3-0.8-0.3-1.9 0-1.3 0.4-2.1 0.4-0.8 1.1-1.4 0.7-0.5 1.7-0.7 0.9-0.3 1.8-0.5 1-0.2 2-0.3 0.9-0.1 1.6-0.2 0.7-0.2 1.1-0.6 0.4-0.4 0.4-1.1 0-0.8-0.3-1.3-0.3-0.5-0.8-0.7-0.5-0.3-1.1-0.4-0.6-0.1-1.2-0.1-1.5 0-2.6 0.6-1 0.6-1.1 2.3h-2.5q0.1-1.4 0.6-2.4 0.5-0.9 1.4-1.5 0.9-0.6 2-0.9 1.1-0.2 2.4-0.2 1 0 2 0.1 1 0.2 1.8 0.6 0.8 0.5 1.3 1.3 0.5 0.8 0.5 2.1v7.7q0 0.8 0.1 1.3 0.1 0.4 0.7 0.4 0.3 0 0.7-0.2zm-4-7.6q-0.4 0.3-1.2 0.5-0.7 0.1-1.6 0.2-0.8 0.1-1.6 0.3-0.9 0.1-1.5 0.4-0.7 0.3-1.1 0.8-0.4 0.5-0.4 1.4 0 0.7 0.2 1.1 0.3 0.4 0.6 0.7 0.4 0.2 1 0.3 0.5 0.1 1.1 0.1 1.2 0 2.1-0.3 0.8-0.3 1.4-0.8 0.5-0.5 0.8-1.1 0.2-0.6 0.2-1.1z"/>
				<path id="&lt;Compound Path&gt;" class="s0" d="m110-366.5v20.7h-2.4v-20.7z"/>
				<path id="&lt;Compound Path&gt;" class="s0" d="m136.6-366.5v2.3h-11.5v6.6h10.8v2.3h-10.8v7.2h11.6v2.3h-14.4v-20.7z"/>
				<path id="&lt;Compound Path&gt;" class="s0" d="m141.5-349.1q0.4 0.5 0.9 0.9 0.6 0.3 1.3 0.4 0.7 0.2 1.5 0.2 0.6 0 1.2-0.1 0.6-0.1 1.2-0.3 0.5-0.3 0.9-0.7 0.3-0.5 0.3-1.1 0-1-0.7-1.5-0.7-0.5-1.8-0.8-1.1-0.3-2.4-0.5-1.3-0.3-2.4-0.7-1-0.5-1.8-1.3-0.7-0.8-0.7-2.3 0-1.1 0.5-1.9 0.5-0.8 1.3-1.3 0.8-0.5 1.8-0.8 1-0.2 2-0.2 1.3 0 2.4 0.2 1 0.2 1.9 0.7 0.8 0.6 1.3 1.5 0.5 0.9 0.6 2.3h-2.5q-0.1-0.8-0.4-1.2-0.3-0.5-0.8-0.8-0.5-0.3-1.1-0.4-0.6-0.2-1.2-0.2-0.5 0-1.1 0.1-0.6 0.1-1 0.3-0.5 0.3-0.8 0.6-0.3 0.4-0.3 1 0 0.6 0.5 1 0.4 0.4 1.1 0.7 0.7 0.3 1.6 0.5 0.9 0.2 1.7 0.4 0.9 0.2 1.8 0.5 0.9 0.3 1.6 0.7 0.7 0.5 1.1 1.2 0.4 0.8 0.4 1.8 0 1.4-0.5 2.3-0.6 0.9-1.5 1.4-0.9 0.6-2.1 0.8-1.1 0.2-2.3 0.2-1.2 0-2.3-0.2-1.2-0.3-2-0.9-0.9-0.6-1.4-1.6-0.5-0.9-0.6-2.3h2.5q0 0.8 0.3 1.4z"/>
				<path id="&lt;Compound Path&gt;" class="s0" d="m160.6-360.8v2.2h-3v9.3q0 0.4 0 0.7 0.1 0.3 0.3 0.4 0.2 0.2 0.6 0.2 0.3 0 0.9 0h1.2v2.2h-1.9q-1 0-1.7-0.1-0.7-0.1-1.1-0.5-0.4-0.3-0.6-1-0.2-0.6-0.2-1.7v-9.5h-2.5v-2.2h2.5v-4.5h2.5v4.5z"/>
				<path id="&lt;Compound Path&gt;" fill-rule="evenodd" class="s0" d="m176.6-345.8q-0.7 0.3-1.8 0.3-1 0-1.5-0.5-0.6-0.5-0.6-1.8-1 1.3-2.4 1.8-1.3 0.5-2.9 0.5-1 0-1.9-0.2-0.9-0.2-1.6-0.7-0.6-0.5-1-1.3-0.4-0.8-0.4-1.9 0-1.3 0.4-2.1 0.4-0.8 1.1-1.4 0.8-0.5 1.7-0.7 0.9-0.3 1.8-0.5 1.1-0.2 2-0.3 0.9-0.1 1.6-0.2 0.7-0.2 1.1-0.6 0.4-0.4 0.4-1.1 0-0.8-0.3-1.3-0.3-0.5-0.8-0.7-0.5-0.3-1.1-0.4-0.6-0.1-1.1-0.1-1.6 0-2.7 0.6-1 0.6-1.1 2.3h-2.5q0.1-1.4 0.6-2.4 0.5-0.9 1.4-1.5 0.9-0.6 2-0.9 1.1-0.2 2.4-0.2 1 0 2 0.1 1 0.2 1.8 0.6 0.8 0.5 1.3 1.3 0.5 0.8 0.5 2.1v7.7q0 0.8 0.1 1.3 0.1 0.4 0.7 0.4 0.3 0 0.8-0.2zm-4-7.6q-0.5 0.3-1.3 0.5-0.7 0.1-1.5 0.2-0.9 0.1-1.7 0.3-0.8 0.1-1.5 0.4-0.7 0.3-1.1 0.8-0.4 0.5-0.4 1.4 0 0.7 0.2 1.1 0.3 0.4 0.7 0.7 0.4 0.2 0.9 0.3 0.5 0.1 1.1 0.1 1.2 0 2.1-0.3 0.8-0.3 1.4-0.8 0.5-0.5 0.8-1.1 0.3-0.6 0.3-1.1z"/>
				<path id="&lt;Compound Path&gt;" class="s0" d="m185.3-360.8v2.2h-3v9.3q0 0.4 0 0.7 0.1 0.3 0.3 0.4 0.2 0.2 0.6 0.2 0.3 0 0.9 0h1.2v2.2h-1.9q-1 0-1.7-0.1-0.6-0.1-1.1-0.5-0.4-0.3-0.6-1-0.2-0.6-0.2-1.7v-9.5h-2.5v-2.2h2.5v-4.5h2.5v4.5z"/>
				<path id="&lt;Compound Path&gt;" fill-rule="evenodd" class="s0" d="m198.6-346.7q-1.7 1.2-4.2 1.2-1.8 0-3.2-0.5-1.3-0.6-2.2-1.7-0.9-1-1.3-2.5-0.5-1.4-0.5-3.1 0-1.7 0.5-3.2 0.5-1.4 1.5-2.4 0.9-1.1 2.2-1.6 1.3-0.6 2.8-0.6 2 0 3.3 0.8 1.4 0.8 2.2 2.1 0.7 1.3 1.1 2.8 0.3 1.5 0.2 2.9h-11.2q-0.1 0.9 0.2 1.8 0.3 0.9 0.9 1.6 0.5 0.7 1.4 1.1 0.9 0.4 2.1 0.4 1.6 0 2.6-0.7 1-0.8 1.3-2.2h2.5q-0.5 2.5-2.2 3.8zm-0.6-9.7q-0.3-0.8-0.9-1.3-0.6-0.6-1.3-0.9-0.8-0.4-1.7-0.4-1 0-1.8 0.4-0.7 0.3-1.3 0.9-0.5 0.6-0.8 1.3-0.4 0.8-0.4 1.7h8.6q-0.1-0.9-0.4-1.7z"/>
				<path id="&lt;Compound Path&gt;" class="s0" d="m209.8-364.2v-2.3h16.6v2.3h-6.9v18.4h-2.8v-18.4z"/>
				<path id="&lt;Compound Path&gt;" class="s0" d="m227.8-360.8v3.2h0.1q0.9-1.8 2.2-2.7 1.3-0.9 3.3-0.8v2.6q-1.5 0-2.5 0.4-1.1 0.4-1.7 1.2-0.7 0.8-0.9 1.9-0.3 1.1-0.3 2.5v6.7h-2.5v-15z"/>
				<path id="&lt;Compound Path&gt;" fill-rule="evenodd" class="s0" d="m248.5-345.8q-0.6 0.3-1.7 0.3-1 0-1.6-0.5-0.5-0.5-0.5-1.8-1 1.3-2.4 1.8-1.3 0.5-2.9 0.5-1 0-1.9-0.2-1-0.2-1.6-0.7-0.7-0.5-1.1-1.3-0.4-0.8-0.4-1.9 0-1.3 0.5-2.1 0.4-0.8 1.1-1.4 0.7-0.5 1.6-0.7 0.9-0.3 1.9-0.5 1-0.2 1.9-0.3 0.9-0.1 1.6-0.2 0.7-0.2 1.1-0.6 0.4-0.4 0.4-1.1 0-0.8-0.3-1.3-0.3-0.5-0.7-0.7-0.5-0.3-1.1-0.4-0.6-0.1-1.2-0.1-1.6 0-2.6 0.6-1 0.6-1.1 2.3h-2.5q0.1-1.4 0.6-2.4 0.5-0.9 1.4-1.5 0.9-0.6 2-0.9 1.1-0.2 2.4-0.2 1 0 2 0.1 1 0.2 1.8 0.6 0.8 0.5 1.3 1.3 0.5 0.8 0.5 2.1v7.7q0 0.8 0.1 1.3 0.1 0.4 0.7 0.4 0.3 0 0.7-0.2zm-4-7.6q-0.4 0.3-1.2 0.5-0.8 0.1-1.6 0.2-0.8 0.1-1.6 0.3-0.9 0.1-1.6 0.4-0.6 0.3-1 0.8-0.5 0.5-0.5 1.4 0 0.7 0.3 1.1 0.2 0.4 0.6 0.7 0.4 0.2 0.9 0.3 0.6 0.1 1.1 0.1 1.3 0 2.1-0.3 0.9-0.3 1.4-0.8 0.6-0.5 0.9-1.1 0.2-0.6 0.2-1.1z"/>
				<path id="&lt;Compound Path&gt;" fill-rule="evenodd" class="s0" d="m261.7-345.8v-2q-0.6 1.2-1.9 1.8-1.3 0.5-2.9 0.5-1.7 0-3-0.6-1.3-0.6-2.2-1.7-0.8-1.1-1.3-2.5-0.4-1.4-0.4-3 0-1.6 0.4-3 0.4-1.5 1.3-2.5 0.9-1.1 2.1-1.7 1.3-0.6 3-0.6 0.6 0 1.3 0.1 0.7 0.1 1.3 0.4 0.7 0.3 1.3 0.7 0.6 0.5 1 1.1v-7.7h2.5v20.7zm-8.9-5.3q0.3 1 0.9 1.8 0.6 0.8 1.4 1.2 0.9 0.5 2.1 0.5 1.3 0 2.1-0.5 0.9-0.5 1.4-1.3 0.6-0.8 0.8-1.8 0.3-1 0.3-2.1 0-1.1-0.3-2.1-0.2-1-0.8-1.8-0.6-0.8-1.5-1.3-0.9-0.5-2.1-0.5-1.3 0-2.1 0.5-0.9 0.5-1.4 1.3-0.6 0.9-0.8 1.9-0.2 1-0.2 2.1 0 1.1 0.2 2.1z"/>
				<path id="&lt;Compound Path&gt;" fill-rule="evenodd" class="s0" d="m278.6-346.7q-1.7 1.2-4.2 1.2-1.8 0-3.1-0.5-1.4-0.6-2.3-1.7-0.9-1-1.3-2.5-0.4-1.4-0.5-3.1 0-1.7 0.5-3.2 0.5-1.4 1.5-2.4 0.9-1.1 2.2-1.6 1.3-0.6 2.8-0.6 2 0 3.4 0.8 1.3 0.8 2.1 2.1 0.8 1.3 1.1 2.8 0.3 1.5 0.2 2.9h-11.2q0 0.9 0.2 1.8 0.3 0.9 0.9 1.6 0.6 0.7 1.5 1.1 0.9 0.4 2.1 0.4 1.5 0 2.5-0.7 1-0.8 1.4-2.2h2.4q-0.5 2.5-2.2 3.8zm-0.6-9.7q-0.3-0.8-0.9-1.3-0.5-0.6-1.3-0.9-0.8-0.4-1.7-0.4-1 0-1.7 0.4-0.8 0.3-1.4 0.9-0.5 0.6-0.8 1.3-0.3 0.8-0.4 1.7h8.6q0-0.9-0.4-1.7z"/>
			</g>
		</g>
		<g id="&lt;Group&gt;">
			<g id="&lt;Group&gt;">
				<path id="&lt;Path&gt;" class="s0" d="m223.6-527.8c-2.8 4-5.2 7.4-7.7 10.9-1.1 1.6-2.6 3-3.4 4.8-2.2 4.6-5.8 5.6-10.7 5.5-15.5-0.3-31-0.1-46.5-0.1-1.7 0-3.4 0.2-5 0.5-2.9 0.5-4.4 2.3-4.6 5.3-0.2 2.8 1.2 5.1 4 5.8 1.6 0.5 3.5 0.7 5.2 0.7 14.3 0 28.6 0 42.9 0 6 0 11.9 0.9 17.4 3.5 5.7 2.8 9.3 7.3 10.3 13.4 1.4 8.8 0.7 17.3-5.7 24.2-4.3 4.8-10.1 7.1-16.2 7.8-6.8 0.7-13.6 0.7-20.4 0.9-0.9 0-2.2-0.4-2.6-1-4.2-6.4-8.3-12.9-12.7-19.8 1.4-0.1 2.2-0.2 3.1-0.2 7.4 0 14.8 0 22.2 0 1.6 0 3.3-0.1 4.9-0.3 2.9-0.3 4.8-2.4 5.1-5.1 0.3-3.6-1-5.8-4.2-6.7-1.9-0.5-4-0.6-6-0.7-14 0-27.9 0.2-41.9-0.1-4.5-0.1-9.2-0.7-13.5-2.1-10.8-3.7-15.6-12.2-14.6-24.3 1-12.8 9-19.3 20-21.6 5-1 10.2-1.3 15.4-1.4 20.7-0.1 41.4 0 62.1 0 0.8 0 1.6 0 3.1 0.1z"/>
			</g>
			<g id="&lt;Group&gt;">
				<path id="&lt;Path&gt;" class="s1" d="m43.2-523.9q6.1-4.1 12.2-8.1c7.1-4.7 14.2-9.4 21.2-14.2 1-0.6 1.7-2.1 1.7-3.3 0.2-6.3 0.2-12.6 0.1-18.8-0.1-2.2 0.7-2.8 2.8-2.8q10.2 0.2 20.4 0c1.9 0 2.6 0.6 2.5 2.5-0.1 1.4 0 2.9 0 4.8 1.2-0.6 1.9-1 2.5-1.4 11-7.1 22-14.2 33.1-21.3 0.6-0.4 2.1-0.4 2.8 0 26.4 17 52.7 34 79 51 0.6 0.3 1 0.8 1.9 1.6-1.2 0.1-1.8 0.2-2.5 0.2-10.6 0-21.2 0-31.9-0.1-1.4 0-3-0.4-4.2-1.2q-20.7-13.3-41.2-26.9c-1.8-1.2-3.2-1.2-5 0q-29.3 18.8-58.7 37.4c-1.3 0.8-3.1 1.3-4.7 1.3-9.7 0.2-19.4 0.1-29.1 0.1q-1.4 0-2.7 0-0.1-0.4-0.2-0.8z"/>
			</g>
			<g id="&lt;Group&gt;">
				<path id="&lt;Path&gt;" class="s1" d="m104.4-533.5c0.1 1.5 0.2 2.6 0.2 3.7 0 20.2 0 40.4-0.1 60.7 0 2.4 0.6 3.2 3.1 3.2 16.7-0.1 33.4-0.1 50.1-0.1 2 0 3.2 0.6 4.3 2.3 3.3 5.4 6.7 10.6 10.1 15.9 0.6 1 1.1 1.9 1.9 3.3-1.2 0.1-2 0.2-2.7 0.2-29.9 0-59.8 0-89.6 0-2.3 0-2.9-0.7-2.8-2.9 0-22.8 0-45.6 0.1-68.4 0-1.1 0.6-2.7 1.5-3.3 7.3-4.7 14.8-9.3 22.2-13.9 0.4-0.2 0.8-0.3 1.7-0.7z"/>
			</g>
			<g id="&lt;Group&gt;">
				<path id="&lt;Path&gt;" class="s0" d="m121.8-542.9q4.5-3 9-6c2.9-1.9 6-3.6 8.8-5.7 2.2-1.6 3.8-1.5 6 0.1 6.5 4.5 13.1 8.8 19.7 13.2 0.9 0.6 1.8 1.3 2.5 2.3q-1.3-0.7-2.6-1.4c-6.9-3.7-13.8-7.3-20.7-11.1-1.5-0.8-2.7-0.8-4.3 0-6 3-12.1 6-18.2 8.9q-0.1-0.1-0.2-0.3z"/>
			</g>
		</g>
		<g id="&lt;Group&gt;">
			<g id="&lt;Group&gt;">
				<g id="&lt;Group&gt;">
					<path id="&lt;Path&gt;" class="s0" d="m829.6-538.4c-3 4.1-5.5 7.7-8 11.2-1.2 1.7-2.7 3.2-3.5 5-2.3 4.8-6 5.8-11.1 5.7-16-0.3-32.1-0.1-48.1-0.1-1.7 0-3.5 0.2-5.2 0.5-3 0.6-4.6 2.5-4.8 5.5-0.1 2.9 1.3 5.3 4.1 6.1 1.8 0.4 3.7 0.6 5.5 0.6 14.8 0.1 29.6 0 44.4 0 6.2 0.1 12.3 0.9 17.9 3.7 5.9 2.8 9.7 7.5 10.7 13.9 1.5 9 0.7 17.8-5.9 25-4.4 4.9-10.4 7.3-16.8 8-7 0.8-14 0.8-21.1 1-0.9 0-2.2-0.4-2.7-1.1-4.3-6.6-8.5-13.3-13.1-20.4 1.4-0.1 2.3-0.3 3.2-0.3 7.7 0 15.3 0.1 23 0 1.7 0 3.4 0 5-0.2 3-0.4 5-2.5 5.3-5.4 0.4-3.6-1-6-4.3-6.9-2-0.5-4.1-0.6-6.2-0.7-14.5 0-28.9 0.2-43.4-0.1-4.6-0.1-9.5-0.7-13.9-2.2-11.2-3.8-16.2-12.6-15.2-25.1 1.1-13.3 9.4-20 20.7-22.3 5.2-1.1 10.6-1.4 16-1.5 21.4-0.1 42.8 0 64.2 0 0.8 0 1.7 0 3.3 0.1z"/>
				</g>
				<g id="&lt;Group&gt;">
					<path id="&lt;Path&gt;" class="s1" d="m642.9-534.4q6.3-4.2 12.7-8.4c7.3-4.8 14.7-9.6 21.9-14.6 0.9-0.7 1.7-2.2 1.8-3.4 0.1-6.5 0.1-13 0-19.6-0.1-2.2 0.7-2.8 2.9-2.8q10.6 0.2 21.1 0c2 0 2.8 0.7 2.6 2.6-0.1 1.5 0 2.9 0 5 1.2-0.7 1.9-1.1 2.6-1.5 11.4-7.3 22.8-14.7 34.2-22 0.7-0.4 2.2-0.5 2.9 0 27.3 17.5 54.6 35.1 81.8 52.7 0.5 0.3 1 0.8 1.9 1.6-1.2 0.1-1.9 0.3-2.5 0.3-11 0-22 0-33-0.1-1.5 0-3.2-0.5-4.4-1.3q-21.4-13.8-42.6-27.8c-1.9-1.2-3.3-1.3-5.2 0q-30.3 19.4-60.7 38.7c-1.4 0.8-3.3 1.4-4.9 1.4-10 0.1-20.1 0-30.1 0q-1.4 0-2.8 0-0.1-0.4-0.2-0.8z"/>
				</g>
				<g id="&lt;Group&gt;">
					<path id="&lt;Path&gt;" class="s1" d="m706.2-544.3c0.1 1.6 0.2 2.7 0.2 3.8 0 20.9 0 41.9-0.1 62.8 0 2.5 0.7 3.3 3.3 3.3 17.2-0.1 34.5 0 51.7-0.1 2.1 0 3.4 0.6 4.5 2.4 3.4 5.6 6.9 11 10.4 16.5 0.6 0.9 1.2 1.9 2 3.3-1.2 0.1-2 0.2-2.8 0.2-30.9 0-61.8 0-92.7 0.1-2.4 0-2.9-0.7-2.9-3 0.1-23.6 0-47.2 0.1-70.7 0-1.2 0.6-2.9 1.6-3.5 7.6-4.9 15.3-9.6 23-14.4 0.4-0.2 0.8-0.3 1.7-0.7z"/>
				</g>
				<g id="&lt;Group&gt;">
					<path id="&lt;Path&gt;" class="s0" d="m724.2-554.1q4.7-3.1 9.3-6.1c3.1-2 6.2-3.7 9.1-5.9 2.3-1.7 4-1.6 6.3 0 6.7 4.7 13.5 9.2 20.3 13.7 1 0.6 1.9 1.3 2.6 2.4q-1.4-0.7-2.7-1.4c-7.2-3.8-14.3-7.6-21.4-11.5-1.6-0.8-2.8-0.8-4.4 0-6.3 3.1-12.6 6.2-18.8 9.2q-0.2-0.2-0.3-0.4z"/>
				</g>
			</g>
			<g id="&lt;Group&gt;">
				<g id="&lt;Group&gt;">
					<path id="&lt;Compound Path&gt;" class="s2" d="m638.4-395.8h-6.6v-46.2h6.6z"/>
					<path id="&lt;Compound Path&gt;" class="s2" d="m644.9-395.8v-6.5h18.9v-5.9c0-6.9-4.7-11.5-12.2-11.5h-0.8v-6.6h1.2c7.1 0 12.5 2.8 16 8.4 1.6 2.5 2.4 5.8 2.4 10.2v5.4h0.4v6.5z"/>
					<path id="&lt;Compound Path&gt;" class="s2" d="m669.7-402.2h30.2v6.4h-30.2z"/>
					<path id="&lt;Compound Path&gt;" class="s2" d="m720.5-402.3h0.4v6.5h-22.2v-6.5h15.2v-24h6.6zm-16.8 14h6.5v6.6h-6.5zm10.2 0h6.6v6.6h-6.6z"/>
					<path id="&lt;Compound Path&gt;" fill-rule="evenodd" class="s2" d="m720.5-395.8v-6.5h16c-3.6-3.7-5.5-7.4-5.5-11.1 0-4.5 1.8-8.1 5.3-10.7 2-1.4 4.8-2.2 8.7-2.2h9.3v24h0.4v6.5zm27.2-7v-16.9h-2.6c-1.5 0-2.6 0.1-3.3 0.3-2.7 0.6-4 2.5-4 5.8 0 1.9 0.8 3.8 2.3 5.7 1.8 2.2 4.3 4 7.6 5.1zm-8-39.2h6.6v6.5h-6.6z"/>
					<path id="&lt;Compound Path&gt;" class="s2" d="m783.1-402.3h11.6v-18.2h6.5v18.2h11.7v-24h6.5v30.5h-65.1v-6.5h22.3v-12.4h6.5z"/>
					<path id="&lt;Compound Path&gt;" class="s2" d="m849.8-402.3v-39.7h6.6v39.7h10.5v-39.7h6.7v46.2h-34.3v-6.5z"/>
				</g>
			</g>
			<g id="&lt;Group&gt;">
				<g id="&lt;Group&gt;">
					<path id="&lt;Compound Path&gt;" class="s3" d="m633.9-352.5v-9.3c0-3.5 2.3-5.9 5.8-5.9h4.1v2.4h-4.3q-1.4 0-2.1 0.6-0.5 0.4-0.8 1-0.4 0.7-0.4 2.1v6.8h7.6v4q0.1 2.8-1.1 4.1-1.5 1.7-3.9 1.7h-6.9c-1.6 0-2.9-0.5-3.8-1.7q-1.2-1.3-1.2-4.1v-10.7h2.4v10.2q0 1.8 0.2 2.4 0.1 0.6 0.6 1c0.5 0.4 1.2 0.6 2.2 0.6h6.2q1.5 0 2.1-0.6c0.4-0.3 0.6-0.6 0.8-1q0.1-0.6 0.1-2.4v-1.2z"/>
					<path id="&lt;Compound Path&gt;" class="s3" d="m652.7-367.7v16c0 4.2-2.3 6.7-6.1 6.7h-0.1v-2.4c0.8 0 1.5-0.2 2.1-0.5 0.7-0.4 1.3-1.1 1.5-1.9 0.2-0.5 0.3-1.4 0.3-2.6v-15.3z"/>
					<path id="&lt;Compound Path&gt;" class="s3" d="m658.6-354.8v2.3h-2.6v-24.8h2.4v22.5z"/>
					<path id="&lt;Compound Path&gt;" class="s3" d="m658-354.8h15.9v2.3h-15.9z"/>
					<path id="&lt;Compound Path&gt;" fill-rule="evenodd" class="s3" d="m673.3-354.8h9.3l-1.1-1.1q-2.7-2.5-2.7-5.7 0-3.1 2.3-4.9 1-0.8 2.1-1 0.7-0.2 2.4-0.2h4.1v12.9h0.3v2.3h-16.7zm7.7-21.3h2.3v2.4h-2.3zm6.4 21.3v-10.5h-1.6q-1.3 0-2.1 0.2-2.4 0.6-2.5 3.6 0 2 1.8 3.9 1.7 1.9 4.4 2.8zm-2.2-21.3h2.3v2.3h-2.3z"/>
					<path id="&lt;Compound Path&gt;" fill-rule="evenodd" class="s3" d="m701.2-354.8h4.6v2.3h-1.5q-1.7 0-2.5-0.2-0.9-0.2-1.8-0.9-1.2 1.1-3 1.1h-7.3v-2.3h7.1q1.2 0 2.2-0.7c-0.5-2-0.9-3.4-1.3-4.5q-1-2.3-2.8-4l1.3-3.3q2.6-0.4 4-0.4 5.4 0 5.4 4.2c0 0.9-0.2 1.9-0.6 2.9-0.6 1.5-1.8 3.3-3.8 5.8zm-0.6-2.7q2.8-3.1 2.8-5.4 0-2.4-3.3-2.4-1.1 0-2.5 0.3 2.3 3 3 7.5z"/>
					<path id="&lt;Compound Path&gt;" class="s3" d="m711-354.8v-22.5h2.3v24.8h-7.8v-2.3z"/>
					<path id="&lt;Compound Path&gt;" class="s3" d="m719.1-352.5h-2.4v-24.8h2.4z"/>
					<path id="&lt;Compound Path&gt;" fill-rule="evenodd" class="s3" d="m746.4-367.7v12.9h0.2v2.3h-0.2v1.7q0 2.8-1.2 4.1-1.5 1.7-3.8 1.7h-6.9c-1.6 0-3-0.5-3.9-1.7q-1.1-1.3-1.1-4.1v-10.7h2.3v10.2q0 1.8 0.2 2.4 0.2 0.6 0.6 1c0.5 0.4 1.2 0.6 2.2 0.6h6.2q1.6 0 2.2-0.6c0.3-0.3 0.6-0.6 0.7-1q0.2-0.6 0.2-2.4v-1q-3.1-0.9-4.7-2.2-3.4-2.7-3.4-7.1 0-2.8 1.8-4.5 1.6-1.6 5-1.6zm-8.7-8.5h2.3v2.4h-2.3zm6.4 21.4v-10.6h-1.5q-4.5 0-4.5 3.9 0 2.3 1.7 4.3 1.8 2 4.3 2.4zm-2.2-21.4h2.3v2.4h-2.3z"/>
					<path id="&lt;Compound Path&gt;" class="s3" d="m746-354.8h15.9v2.3h-15.9z"/>
					<path id="&lt;Compound Path&gt;" class="s3" d="m760.9-354.8h15.8v2.3h-15.8z"/>
					<path id="&lt;Compound Path&gt;" class="s3" d="m783.1-354.8v-12.9h2.3v15.2h-9.3v-2.3zm-4.1 7.5h2.2v2.3h-2.2zm4.1 0h2.4v2.4h-2.4z"/>
					<path id="&lt;Compound Path&gt;" fill-rule="evenodd" class="s3" d="m788.8-345v-2.3h4.8q1.5 0 2.2-0.6c0.7-0.5 0.9-1 0.9-3.3v-1.3h-2.1c-3.5 0-5.8-2.3-5.8-5.8v-3.5c0-3.5 2.3-5.9 5.8-5.9h4.4v12.9h0.2v2.3h-0.2v1.7q0 2.8-1.1 4.1-1.5 1.7-3.9 1.7zm7.9-9.8v-10.5h-2.1q-1.9 0-2.8 1.2-0.6 0.6-0.6 2.3v3.7q0 3.2 3 3.3z"/>
					<path id="&lt;Compound Path&gt;" class="s3" d="m810.7-354.8v-6.7h2.3v6.7h7.3v-9.8h2.3v9.8h7.2v-12.9h2.3v12.9h0.3v2.3h-33.4v-2.3z"/>
					<path id="&lt;Compound Path&gt;" class="s3" d="m831.8-354.8h15.8v2.3h-15.8z"/>
					<path id="&lt;Compound Path&gt;" class="s3" d="m854-354.8v-12.9h2.3v12.9h0.2v2.3h-9.5v-2.3zm-4.2-21.4h2.3v2.4h-2.3zm4.2 0h2.4v2.4h-2.4z"/>
					<path id="&lt;Compound Path&gt;" class="s3" d="m861.8-354.8v-22.5h2.3v22.5h0.2v2.3h-8v-2.3z"/>
					<path id="&lt;Compound Path&gt;" class="s3" d="m869.5-354.8v-22.5h2.4v24.8h-7.8v-2.3z"/>
				</g>
			</g>
		</g>
		<g id="&lt;Group&gt;">
			<g id="&lt;Group&gt;">
				<path id="&lt;Compound Path&gt;" class="s0" d="m79.2 232v2.4h-11.3v6.9h9.9v2.4h-9.9v9.9h-2.9v-21.6z"/>
				<path id="&lt;Compound Path&gt;" fill-rule="evenodd" class="s0" d="m81.6 242.6q0.5-1.5 1.5-2.6 0.9-1.1 2.4-1.8 1.4-0.6 3.2-0.6 1.9 0 3.3 0.6 1.4 0.7 2.4 1.8 1 1.1 1.5 2.6 0.5 1.5 0.5 3.2 0 1.7-0.5 3.2-0.5 1.5-1.5 2.6-1 1.1-2.4 1.7-1.4 0.7-3.3 0.7-1.8 0-3.2-0.7-1.5-0.6-2.4-1.7-1-1.1-1.5-2.6-0.5-1.5-0.5-3.2 0-1.7 0.5-3.2zm2.6 5.7q0.4 1.1 1.1 1.9 0.7 0.7 1.6 1.1 0.8 0.4 1.8 0.4 1 0 1.9-0.4 0.9-0.4 1.6-1.1 0.7-0.8 1-1.9 0.4-1.1 0.4-2.5 0-1.4-0.4-2.5-0.3-1.1-1-1.9-0.7-0.7-1.6-1.1-0.9-0.4-1.9-0.4-1 0-1.8 0.4-0.9 0.4-1.6 1.1-0.7 0.8-1.1 1.9-0.3 1.1-0.3 2.5 0 1.4 0.3 2.5z"/>
				<path id="&lt;Compound Path&gt;" class="s0" d="m101.7 238v3.3h0.1q0.9-1.9 2.3-2.8 1.3-1 3.4-0.9v2.7q-1.5 0-2.6 0.5-1.1 0.4-1.8 1.2-0.6 0.8-0.9 2-0.3 1.1-0.3 2.7v6.9h-2.6v-15.6z"/>
				<path id="&lt;Compound Path&gt;" class="s0" d="m133.3 232v2.4h-12.1v6.9h11.2v2.4h-11.2v7.5h12.2v2.4h-15.1v-21.6z"/>
				<path id="&lt;Compound Path&gt;" class="s0" d="m135.2 238h3.3l3.7 5.5 3.9-5.5h3.1l-5.4 7.2 6.1 8.4h-3.3l-4.4-6.5-4.3 6.5h-3.2l5.9-8.2z"/>
				<path id="&lt;Compound Path&gt;" fill-rule="evenodd" class="s0" d="m154.8 238v2.1q0.7-1.3 2-1.9 1.4-0.6 3-0.6 1.9 0 3.2 0.7 1.3 0.6 2.2 1.8 0.9 1.1 1.4 2.6 0.4 1.5 0.4 3.1 0 1.7-0.4 3.2-0.4 1.5-1.3 2.6-0.9 1.1-2.3 1.7-1.3 0.7-3.1 0.7-0.6 0-1.3-0.2-0.7-0.1-1.4-0.3-0.7-0.3-1.3-0.8-0.6-0.5-1.1-1.2v8.1h-2.6v-21.6zm9.3 5.5q-0.3-1-0.9-1.8-0.6-0.9-1.5-1.3-1-0.5-2.2-0.5-1.3 0-2.2 0.5-0.9 0.5-1.5 1.3-0.6 0.9-0.8 1.9-0.3 1.1-0.3 2.2 0 1.1 0.3 2.2 0.3 1.1 0.8 1.9 0.6 0.8 1.6 1.3 0.9 0.5 2.2 0.5 1.4 0 2.3-0.5 0.9-0.5 1.4-1.4 0.6-0.8 0.8-1.9 0.2-1.1 0.2-2.2 0-1.1-0.2-2.2z"/>
				<path id="&lt;Compound Path&gt;" fill-rule="evenodd" class="s0" d="m169.7 242.6q0.5-1.5 1.5-2.6 0.9-1.1 2.4-1.8 1.4-0.6 3.2-0.6 1.9 0 3.3 0.6 1.4 0.7 2.4 1.8 1 1.1 1.5 2.6 0.4 1.5 0.4 3.2 0 1.7-0.4 3.2-0.5 1.5-1.5 2.6-1 1.1-2.4 1.7-1.4 0.7-3.3 0.7-1.8 0-3.2-0.7-1.5-0.6-2.4-1.7-1-1.1-1.5-2.6-0.5-1.5-0.5-3.2 0-1.7 0.5-3.2zm2.6 5.7q0.4 1.1 1.1 1.9 0.6 0.7 1.5 1.1 0.9 0.4 1.9 0.4 1 0 1.9-0.4 0.9-0.4 1.6-1.1 0.7-0.8 1-1.9 0.4-1.1 0.4-2.5 0-1.4-0.4-2.5-0.3-1.1-1-1.9-0.7-0.7-1.6-1.1-0.9-0.4-1.9-0.4-1 0-1.9 0.4-0.9 0.4-1.5 1.1-0.7 0.8-1.1 1.9-0.3 1.1-0.3 2.5 0 1.4 0.3 2.5z"/>
				<path id="&lt;Compound Path&gt;" class="s0" d="m189.8 238v3.3h0.1q0.9-1.9 2.3-2.8 1.3-1 3.4-0.9v2.7q-1.5 0-2.6 0.5-1.1 0.4-1.8 1.2-0.6 0.8-0.9 2-0.3 1.1-0.3 2.7v6.9h-2.6v-15.6z"/>
				<path id="&lt;Compound Path&gt;" class="s0" d="m204.3 238v2.2h-3.2v9.8q0 0.4 0.1 0.7 0.1 0.3 0.3 0.4 0.2 0.2 0.6 0.2 0.4 0.1 1 0.1h1.2v2.2h-2q-1 0-1.7-0.1-0.7-0.1-1.2-0.5-0.4-0.4-0.6-1-0.2-0.7-0.2-1.8v-10h-2.7v-2.2h2.7v-4.7h2.5v4.7z"/>
			</g>
		</g>
		<g id="&lt;Group&gt;">
			<g id="&lt;Group&gt;">
				<path id="&lt;Compound Path&gt;" class="s3" d="m709.6 244.1h0.3v2.3h-0.3v0.8c0 4.1-2.2 6.6-5.9 6.6h-0.1v-2.4c0.8 0 1.5-0.2 2-0.5 0.8-0.4 1.3-1.1 1.6-1.9 0.1-0.5 0.2-1.3 0.2-2.5v-15.1h2.2z"/>
				<path id="&lt;Compound Path&gt;" class="s3" d="m716.5 244.1v-12.7h2.3v15h-9.2v-2.3zm-4.1 7.4h2.3v2.3h-2.3zm4.1 0h2.3v2.4h-2.3z"/>
				<path id="&lt;Compound Path&gt;" class="s3" d="m734.2 244.1h0.2v2.3h-12.3v-2.3h9.8v-3.2q0-3.5-1.7-5.2-2-2-5.1-2v-2.3h0.2q3.3 0 5.9 2 3 2.4 3 7z"/>
				<path id="&lt;Compound Path&gt;" fill-rule="evenodd" class="s3" d="m739.5 244.1v-7.3h2.3v7.3h4.1v-12.7h11.1c3.4 0 5.7 2.3 5.7 5.8v6.9h0.2v2.3h-28.7v-2.3zm8.7-10.4v10.4h12.2v-6.7c0-0.9-0.1-1.7-0.4-2.1q-0.8-1.6-2.8-1.6z"/>
				<path id="&lt;Compound Path&gt;" class="s3" d="m762.4 244.1h15.6v2.3h-15.6z"/>
				<path id="&lt;Compound Path&gt;" class="s3" d="m784.2 244.1v-12.7h2.3v12.7h0.2v2.3h-9.3v-2.3zm-4.1-21h2.2v2.3h-2.2zm4.1 0h2.3v2.4h-2.3z"/>
				<path id="&lt;Compound Path&gt;" class="s3" d="m791.9 244.1v-22.2h2.3v22.2h0.2v2.3h-7.9v-2.3z"/>
				<path id="&lt;Compound Path&gt;" class="s3" d="m799.6 244.1v-22.2h2.3v24.5h-7.7v-2.3z"/>
			</g>
		</g>
	</g>
</svg>